<?xml version="1.0" encoding="utf-8"?>
<svg xmlns="http://www.w3.org/2000/svg" xmlns:xlink="http://www.w3.org/1999/xlink" width="600" height="400" viewBox="0 0 2400 1600">
<defs>
  <clipPath id="clip640">
    <rect x="0" y="0" width="2400" height="1600"/>
  </clipPath>
</defs>
<path clip-path="url(#clip640)" d="M0 1600 L2400 1600 L2400 0 L0 0  Z" fill="#ffffff" fill-rule="evenodd" fill-opacity="1"/>
<defs>
  <clipPath id="clip641">
    <rect x="317" y="186" width="1974" height="1238"/>
  </clipPath>
</defs>
<path clip-path="url(#clip640)" d="M317.252 1423.46 L2289.76 1423.46 L2289.76 186.464 L317.252 186.464  Z" fill="#ffffff" fill-rule="evenodd" fill-opacity="1"/>
<polyline clip-path="url(#clip641)" style="stroke:#000000; stroke-linecap:round; stroke-linejoin:round; stroke-width:2; stroke-opacity:0.1; fill:none" points="317.252,1423.46 317.252,186.464 "/>
<polyline clip-path="url(#clip641)" style="stroke:#000000; stroke-linecap:round; stroke-linejoin:round; stroke-width:2; stroke-opacity:0.1; fill:none" points="798.352,1423.46 798.352,186.464 "/>
<polyline clip-path="url(#clip641)" style="stroke:#000000; stroke-linecap:round; stroke-linejoin:round; stroke-width:2; stroke-opacity:0.1; fill:none" points="1279.45,1423.46 1279.45,186.464 "/>
<polyline clip-path="url(#clip641)" style="stroke:#000000; stroke-linecap:round; stroke-linejoin:round; stroke-width:2; stroke-opacity:0.1; fill:none" points="1760.55,1423.46 1760.55,186.464 "/>
<polyline clip-path="url(#clip641)" style="stroke:#000000; stroke-linecap:round; stroke-linejoin:round; stroke-width:2; stroke-opacity:0.1; fill:none" points="2241.65,1423.46 2241.65,186.464 "/>
<polyline clip-path="url(#clip641)" style="stroke:#000000; stroke-linecap:round; stroke-linejoin:round; stroke-width:2; stroke-opacity:0.1; fill:none" points="317.252,1275.55 2289.76,1275.55 "/>
<polyline clip-path="url(#clip641)" style="stroke:#000000; stroke-linecap:round; stroke-linejoin:round; stroke-width:2; stroke-opacity:0.1; fill:none" points="317.252,1030.43 2289.76,1030.43 "/>
<polyline clip-path="url(#clip641)" style="stroke:#000000; stroke-linecap:round; stroke-linejoin:round; stroke-width:2; stroke-opacity:0.1; fill:none" points="317.252,785.32 2289.76,785.32 "/>
<polyline clip-path="url(#clip641)" style="stroke:#000000; stroke-linecap:round; stroke-linejoin:round; stroke-width:2; stroke-opacity:0.1; fill:none" points="317.252,540.205 2289.76,540.205 "/>
<polyline clip-path="url(#clip641)" style="stroke:#000000; stroke-linecap:round; stroke-linejoin:round; stroke-width:2; stroke-opacity:0.1; fill:none" points="317.252,295.091 2289.76,295.091 "/>
<polyline clip-path="url(#clip640)" style="stroke:#000000; stroke-linecap:round; stroke-linejoin:round; stroke-width:4; stroke-opacity:1; fill:none" points="317.252,1423.46 2289.76,1423.46 "/>
<polyline clip-path="url(#clip640)" style="stroke:#000000; stroke-linecap:round; stroke-linejoin:round; stroke-width:4; stroke-opacity:1; fill:none" points="317.252,1423.46 317.252,1404.56 "/>
<polyline clip-path="url(#clip640)" style="stroke:#000000; stroke-linecap:round; stroke-linejoin:round; stroke-width:4; stroke-opacity:1; fill:none" points="798.352,1423.46 798.352,1404.56 "/>
<polyline clip-path="url(#clip640)" style="stroke:#000000; stroke-linecap:round; stroke-linejoin:round; stroke-width:4; stroke-opacity:1; fill:none" points="1279.45,1423.46 1279.45,1404.56 "/>
<polyline clip-path="url(#clip640)" style="stroke:#000000; stroke-linecap:round; stroke-linejoin:round; stroke-width:4; stroke-opacity:1; fill:none" points="1760.55,1423.46 1760.55,1404.56 "/>
<polyline clip-path="url(#clip640)" style="stroke:#000000; stroke-linecap:round; stroke-linejoin:round; stroke-width:4; stroke-opacity:1; fill:none" points="2241.65,1423.46 2241.65,1404.56 "/>
<path clip-path="url(#clip640)" d="M317.252 1454.37 Q313.641 1454.37 311.812 1457.94 Q310.007 1461.48 310.007 1468.61 Q310.007 1475.72 311.812 1479.28 Q313.641 1482.82 317.252 1482.82 Q320.886 1482.82 322.692 1479.28 Q324.52 1475.72 324.52 1468.61 Q324.52 1461.48 322.692 1457.94 Q320.886 1454.37 317.252 1454.37 M317.252 1450.67 Q323.062 1450.67 326.118 1455.28 Q329.196 1459.86 329.196 1468.61 Q329.196 1477.34 326.118 1481.94 Q323.062 1486.53 317.252 1486.53 Q311.442 1486.53 308.363 1481.94 Q305.307 1477.34 305.307 1468.61 Q305.307 1459.86 308.363 1455.28 Q311.442 1450.67 317.252 1450.67 Z" fill="#000000" fill-rule="nonzero" fill-opacity="1" /><path clip-path="url(#clip640)" d="M762.045 1481.92 L778.364 1481.92 L778.364 1485.86 L756.42 1485.86 L756.42 1481.92 Q759.082 1479.17 763.665 1474.54 Q768.271 1469.88 769.452 1468.54 Q771.697 1466.02 772.577 1464.28 Q773.48 1462.52 773.48 1460.83 Q773.48 1458.08 771.535 1456.34 Q769.614 1454.61 766.512 1454.61 Q764.313 1454.61 761.859 1455.37 Q759.429 1456.13 756.651 1457.68 L756.651 1452.96 Q759.475 1451.83 761.929 1451.25 Q764.383 1450.67 766.42 1450.67 Q771.79 1450.67 774.984 1453.36 Q778.179 1456.04 778.179 1460.53 Q778.179 1462.66 777.369 1464.58 Q776.582 1466.48 774.475 1469.07 Q773.896 1469.74 770.795 1472.96 Q767.693 1476.16 762.045 1481.92 Z" fill="#000000" fill-rule="nonzero" fill-opacity="1" /><path clip-path="url(#clip640)" d="M788.225 1451.3 L806.581 1451.3 L806.581 1455.23 L792.507 1455.23 L792.507 1463.7 Q793.526 1463.36 794.544 1463.19 Q795.563 1463.01 796.582 1463.01 Q802.369 1463.01 805.748 1466.18 Q809.128 1469.35 809.128 1474.77 Q809.128 1480.35 805.656 1483.45 Q802.183 1486.53 795.864 1486.53 Q793.688 1486.53 791.42 1486.16 Q789.174 1485.79 786.767 1485.05 L786.767 1480.35 Q788.85 1481.48 791.072 1482.04 Q793.294 1482.59 795.771 1482.59 Q799.776 1482.59 802.114 1480.49 Q804.452 1478.38 804.452 1474.77 Q804.452 1471.16 802.114 1469.05 Q799.776 1466.94 795.771 1466.94 Q793.896 1466.94 792.021 1467.36 Q790.17 1467.78 788.225 1468.66 L788.225 1451.3 Z" fill="#000000" fill-rule="nonzero" fill-opacity="1" /><path clip-path="url(#clip640)" d="M828.341 1454.37 Q824.73 1454.37 822.901 1457.94 Q821.095 1461.48 821.095 1468.61 Q821.095 1475.72 822.901 1479.28 Q824.73 1482.82 828.341 1482.82 Q831.975 1482.82 833.78 1479.28 Q835.609 1475.72 835.609 1468.61 Q835.609 1461.48 833.78 1457.94 Q831.975 1454.37 828.341 1454.37 M828.341 1450.67 Q834.151 1450.67 837.206 1455.28 Q840.285 1459.86 840.285 1468.61 Q840.285 1477.34 837.206 1481.94 Q834.151 1486.53 828.341 1486.53 Q822.53 1486.53 819.452 1481.94 Q816.396 1477.34 816.396 1468.61 Q816.396 1459.86 819.452 1455.28 Q822.53 1450.67 828.341 1450.67 Z" fill="#000000" fill-rule="nonzero" fill-opacity="1" /><path clip-path="url(#clip640)" d="M1239.07 1451.3 L1257.43 1451.3 L1257.43 1455.23 L1243.35 1455.23 L1243.35 1463.7 Q1244.37 1463.36 1245.39 1463.19 Q1246.41 1463.01 1247.43 1463.01 Q1253.21 1463.01 1256.59 1466.18 Q1259.97 1469.35 1259.97 1474.77 Q1259.97 1480.35 1256.5 1483.45 Q1253.03 1486.53 1246.71 1486.53 Q1244.53 1486.53 1242.27 1486.16 Q1240.02 1485.79 1237.61 1485.05 L1237.61 1480.35 Q1239.7 1481.48 1241.92 1482.04 Q1244.14 1482.59 1246.62 1482.59 Q1250.62 1482.59 1252.96 1480.49 Q1255.3 1478.38 1255.3 1474.77 Q1255.3 1471.16 1252.96 1469.05 Q1250.62 1466.94 1246.62 1466.94 Q1244.74 1466.94 1242.87 1467.36 Q1241.02 1467.78 1239.07 1468.66 L1239.07 1451.3 Z" fill="#000000" fill-rule="nonzero" fill-opacity="1" /><path clip-path="url(#clip640)" d="M1279.19 1454.37 Q1275.58 1454.37 1273.75 1457.94 Q1271.94 1461.48 1271.94 1468.61 Q1271.94 1475.72 1273.75 1479.28 Q1275.58 1482.82 1279.19 1482.82 Q1282.82 1482.82 1284.63 1479.28 Q1286.46 1475.72 1286.46 1468.61 Q1286.46 1461.48 1284.63 1457.94 Q1282.82 1454.37 1279.19 1454.37 M1279.19 1450.67 Q1285 1450.67 1288.05 1455.28 Q1291.13 1459.86 1291.13 1468.61 Q1291.13 1477.34 1288.05 1481.94 Q1285 1486.53 1279.19 1486.53 Q1273.38 1486.53 1270.3 1481.94 Q1267.24 1477.34 1267.24 1468.61 Q1267.24 1459.86 1270.3 1455.28 Q1273.38 1450.67 1279.19 1450.67 Z" fill="#000000" fill-rule="nonzero" fill-opacity="1" /><path clip-path="url(#clip640)" d="M1309.35 1454.37 Q1305.74 1454.37 1303.91 1457.94 Q1302.1 1461.48 1302.1 1468.61 Q1302.1 1475.72 1303.91 1479.28 Q1305.74 1482.82 1309.35 1482.82 Q1312.98 1482.82 1314.79 1479.28 Q1316.62 1475.72 1316.62 1468.61 Q1316.62 1461.48 1314.79 1457.94 Q1312.98 1454.37 1309.35 1454.37 M1309.35 1450.67 Q1315.16 1450.67 1318.21 1455.28 Q1321.29 1459.86 1321.29 1468.61 Q1321.29 1477.34 1318.21 1481.94 Q1315.16 1486.53 1309.35 1486.53 Q1303.54 1486.53 1300.46 1481.94 Q1297.4 1477.34 1297.4 1468.61 Q1297.4 1459.86 1300.46 1455.28 Q1303.54 1450.67 1309.35 1450.67 Z" fill="#000000" fill-rule="nonzero" fill-opacity="1" /><path clip-path="url(#clip640)" d="M1718.83 1451.3 L1741.05 1451.3 L1741.05 1453.29 L1728.5 1485.86 L1723.62 1485.86 L1735.43 1455.23 L1718.83 1455.23 L1718.83 1451.3 Z" fill="#000000" fill-rule="nonzero" fill-opacity="1" /><path clip-path="url(#clip640)" d="M1750.22 1451.3 L1768.57 1451.3 L1768.57 1455.23 L1754.5 1455.23 L1754.5 1463.7 Q1755.52 1463.36 1756.54 1463.19 Q1757.56 1463.01 1758.57 1463.01 Q1764.36 1463.01 1767.74 1466.18 Q1771.12 1469.35 1771.12 1474.77 Q1771.12 1480.35 1767.65 1483.45 Q1764.18 1486.53 1757.86 1486.53 Q1755.68 1486.53 1753.41 1486.16 Q1751.17 1485.79 1748.76 1485.05 L1748.76 1480.35 Q1750.84 1481.48 1753.06 1482.04 Q1755.29 1482.59 1757.76 1482.59 Q1761.77 1482.59 1764.11 1480.49 Q1766.44 1478.38 1766.44 1474.77 Q1766.44 1471.16 1764.11 1469.05 Q1761.77 1466.94 1757.76 1466.94 Q1755.89 1466.94 1754.01 1467.36 Q1752.16 1467.78 1750.22 1468.66 L1750.22 1451.3 Z" fill="#000000" fill-rule="nonzero" fill-opacity="1" /><path clip-path="url(#clip640)" d="M1790.33 1454.37 Q1786.72 1454.37 1784.89 1457.94 Q1783.09 1461.48 1783.09 1468.61 Q1783.09 1475.72 1784.89 1479.28 Q1786.72 1482.82 1790.33 1482.82 Q1793.97 1482.82 1795.77 1479.28 Q1797.6 1475.72 1797.6 1468.61 Q1797.6 1461.48 1795.77 1457.94 Q1793.97 1454.37 1790.33 1454.37 M1790.33 1450.67 Q1796.14 1450.67 1799.2 1455.28 Q1802.28 1459.86 1802.28 1468.61 Q1802.28 1477.34 1799.2 1481.94 Q1796.14 1486.53 1790.33 1486.53 Q1784.52 1486.53 1781.44 1481.94 Q1778.39 1477.34 1778.39 1468.61 Q1778.39 1459.86 1781.44 1455.28 Q1784.52 1450.67 1790.33 1450.67 Z" fill="#000000" fill-rule="nonzero" fill-opacity="1" /><path clip-path="url(#clip640)" d="M2186.18 1481.92 L2193.82 1481.92 L2193.82 1455.55 L2185.51 1457.22 L2185.51 1452.96 L2193.77 1451.3 L2198.45 1451.3 L2198.45 1481.92 L2206.09 1481.92 L2206.09 1485.86 L2186.18 1485.86 L2186.18 1481.92 Z" fill="#000000" fill-rule="nonzero" fill-opacity="1" /><path clip-path="url(#clip640)" d="M2225.53 1454.37 Q2221.92 1454.37 2220.09 1457.94 Q2218.29 1461.48 2218.29 1468.61 Q2218.29 1475.72 2220.09 1479.28 Q2221.92 1482.82 2225.53 1482.82 Q2229.17 1482.82 2230.97 1479.28 Q2232.8 1475.72 2232.8 1468.61 Q2232.8 1461.48 2230.97 1457.94 Q2229.17 1454.37 2225.53 1454.37 M2225.53 1450.67 Q2231.34 1450.67 2234.4 1455.28 Q2237.48 1459.86 2237.48 1468.61 Q2237.48 1477.34 2234.4 1481.94 Q2231.34 1486.53 2225.53 1486.53 Q2219.72 1486.53 2216.64 1481.94 Q2213.59 1477.34 2213.59 1468.61 Q2213.59 1459.86 2216.64 1455.28 Q2219.72 1450.67 2225.53 1450.67 Z" fill="#000000" fill-rule="nonzero" fill-opacity="1" /><path clip-path="url(#clip640)" d="M2255.69 1454.37 Q2252.08 1454.37 2250.25 1457.94 Q2248.45 1461.48 2248.45 1468.61 Q2248.45 1475.72 2250.25 1479.28 Q2252.08 1482.82 2255.69 1482.82 Q2259.33 1482.82 2261.13 1479.28 Q2262.96 1475.72 2262.96 1468.61 Q2262.96 1461.48 2261.13 1457.94 Q2259.33 1454.37 2255.69 1454.37 M2255.69 1450.67 Q2261.5 1450.67 2264.56 1455.28 Q2267.64 1459.86 2267.64 1468.61 Q2267.64 1477.34 2264.56 1481.94 Q2261.5 1486.53 2255.69 1486.53 Q2249.88 1486.53 2246.8 1481.94 Q2243.75 1477.34 2243.75 1468.61 Q2243.75 1459.86 2246.8 1455.28 Q2249.88 1450.67 2255.69 1450.67 Z" fill="#000000" fill-rule="nonzero" fill-opacity="1" /><path clip-path="url(#clip640)" d="M2285.85 1454.37 Q2282.24 1454.37 2280.42 1457.94 Q2278.61 1461.48 2278.61 1468.61 Q2278.61 1475.72 2280.42 1479.28 Q2282.24 1482.82 2285.85 1482.82 Q2289.49 1482.82 2291.29 1479.28 Q2293.12 1475.72 2293.12 1468.61 Q2293.12 1461.48 2291.29 1457.94 Q2289.49 1454.37 2285.85 1454.37 M2285.85 1450.67 Q2291.67 1450.67 2294.72 1455.28 Q2297.8 1459.86 2297.8 1468.61 Q2297.8 1477.34 2294.72 1481.94 Q2291.67 1486.53 2285.85 1486.53 Q2280.04 1486.53 2276.97 1481.94 Q2273.91 1477.34 2273.91 1468.61 Q2273.91 1459.86 2276.97 1455.28 Q2280.04 1450.67 2285.85 1450.67 Z" fill="#000000" fill-rule="nonzero" fill-opacity="1" /><polyline clip-path="url(#clip640)" style="stroke:#000000; stroke-linecap:round; stroke-linejoin:round; stroke-width:4; stroke-opacity:1; fill:none" points="317.252,1423.46 317.252,186.464 "/>
<polyline clip-path="url(#clip640)" style="stroke:#000000; stroke-linecap:round; stroke-linejoin:round; stroke-width:4; stroke-opacity:1; fill:none" points="317.252,1275.55 336.15,1275.55 "/>
<polyline clip-path="url(#clip640)" style="stroke:#000000; stroke-linecap:round; stroke-linejoin:round; stroke-width:4; stroke-opacity:1; fill:none" points="317.252,1030.43 336.15,1030.43 "/>
<polyline clip-path="url(#clip640)" style="stroke:#000000; stroke-linecap:round; stroke-linejoin:round; stroke-width:4; stroke-opacity:1; fill:none" points="317.252,785.32 336.15,785.32 "/>
<polyline clip-path="url(#clip640)" style="stroke:#000000; stroke-linecap:round; stroke-linejoin:round; stroke-width:4; stroke-opacity:1; fill:none" points="317.252,540.205 336.15,540.205 "/>
<polyline clip-path="url(#clip640)" style="stroke:#000000; stroke-linecap:round; stroke-linejoin:round; stroke-width:4; stroke-opacity:1; fill:none" points="317.252,295.091 336.15,295.091 "/>
<path clip-path="url(#clip640)" d="M113.984 1276 L143.66 1276 L143.66 1279.93 L113.984 1279.93 L113.984 1276 Z" fill="#000000" fill-rule="nonzero" fill-opacity="1" /><path clip-path="url(#clip640)" d="M163.753 1261.35 Q160.141 1261.35 158.313 1264.91 Q156.507 1268.45 156.507 1275.58 Q156.507 1282.69 158.313 1286.25 Q160.141 1289.8 163.753 1289.8 Q167.387 1289.8 169.192 1286.25 Q171.021 1282.69 171.021 1275.58 Q171.021 1268.45 169.192 1264.91 Q167.387 1261.35 163.753 1261.35 M163.753 1257.64 Q169.563 1257.64 172.618 1262.25 Q175.697 1266.83 175.697 1275.58 Q175.697 1284.31 172.618 1288.92 Q169.563 1293.5 163.753 1293.5 Q157.942 1293.5 154.864 1288.92 Q151.808 1284.31 151.808 1275.58 Q151.808 1266.83 154.864 1262.25 Q157.942 1257.64 163.753 1257.64 Z" fill="#000000" fill-rule="nonzero" fill-opacity="1" /><path clip-path="url(#clip640)" d="M183.914 1286.95 L188.799 1286.95 L188.799 1292.83 L183.914 1292.83 L183.914 1286.95 Z" fill="#000000" fill-rule="nonzero" fill-opacity="1" /><path clip-path="url(#clip640)" d="M208.984 1261.35 Q205.373 1261.35 203.544 1264.91 Q201.738 1268.45 201.738 1275.58 Q201.738 1282.69 203.544 1286.25 Q205.373 1289.8 208.984 1289.8 Q212.618 1289.8 214.424 1286.25 Q216.252 1282.69 216.252 1275.58 Q216.252 1268.45 214.424 1264.91 Q212.618 1261.35 208.984 1261.35 M208.984 1257.64 Q214.794 1257.64 217.849 1262.25 Q220.928 1266.83 220.928 1275.58 Q220.928 1284.31 217.849 1288.92 Q214.794 1293.5 208.984 1293.5 Q203.174 1293.5 200.095 1288.92 Q197.039 1284.31 197.039 1275.58 Q197.039 1266.83 200.095 1262.25 Q203.174 1257.64 208.984 1257.64 Z" fill="#000000" fill-rule="nonzero" fill-opacity="1" /><path clip-path="url(#clip640)" d="M229.192 1258.27 L247.548 1258.27 L247.548 1262.2 L233.474 1262.2 L233.474 1270.68 Q234.493 1270.33 235.511 1270.17 Q236.53 1269.98 237.548 1269.98 Q243.335 1269.98 246.715 1273.15 Q250.095 1276.32 250.095 1281.74 Q250.095 1287.32 246.622 1290.42 Q243.15 1293.5 236.831 1293.5 Q234.655 1293.5 232.386 1293.13 Q230.141 1292.76 227.734 1292.02 L227.734 1287.32 Q229.817 1288.45 232.039 1289.01 Q234.261 1289.56 236.738 1289.56 Q240.743 1289.56 243.081 1287.46 Q245.419 1285.35 245.419 1281.74 Q245.419 1278.13 243.081 1276.02 Q240.743 1273.92 236.738 1273.92 Q234.863 1273.92 232.988 1274.33 Q231.136 1274.75 229.192 1275.63 L229.192 1258.27 Z" fill="#000000" fill-rule="nonzero" fill-opacity="1" /><path clip-path="url(#clip640)" d="M269.307 1261.35 Q265.696 1261.35 263.868 1264.91 Q262.062 1268.45 262.062 1275.58 Q262.062 1282.69 263.868 1286.25 Q265.696 1289.8 269.307 1289.8 Q272.942 1289.8 274.747 1286.25 Q276.576 1282.69 276.576 1275.58 Q276.576 1268.45 274.747 1264.91 Q272.942 1261.35 269.307 1261.35 M269.307 1257.64 Q275.118 1257.64 278.173 1262.25 Q281.252 1266.83 281.252 1275.58 Q281.252 1284.31 278.173 1288.92 Q275.118 1293.5 269.307 1293.5 Q263.497 1293.5 260.419 1288.92 Q257.363 1284.31 257.363 1275.58 Q257.363 1266.83 260.419 1262.25 Q263.497 1257.64 269.307 1257.64 Z" fill="#000000" fill-rule="nonzero" fill-opacity="1" /><path clip-path="url(#clip640)" d="M114.98 1030.89 L144.655 1030.89 L144.655 1034.82 L114.98 1034.82 L114.98 1030.89 Z" fill="#000000" fill-rule="nonzero" fill-opacity="1" /><path clip-path="url(#clip640)" d="M164.748 1016.23 Q161.137 1016.23 159.308 1019.8 Q157.503 1023.34 157.503 1030.47 Q157.503 1037.58 159.308 1041.14 Q161.137 1044.68 164.748 1044.68 Q168.382 1044.68 170.188 1041.14 Q172.016 1037.58 172.016 1030.47 Q172.016 1023.34 170.188 1019.8 Q168.382 1016.23 164.748 1016.23 M164.748 1012.53 Q170.558 1012.53 173.614 1017.14 Q176.692 1021.72 176.692 1030.47 Q176.692 1039.2 173.614 1043.8 Q170.558 1048.39 164.748 1048.39 Q158.938 1048.39 155.859 1043.8 Q152.803 1039.2 152.803 1030.47 Q152.803 1021.72 155.859 1017.14 Q158.938 1012.53 164.748 1012.53 Z" fill="#000000" fill-rule="nonzero" fill-opacity="1" /><path clip-path="url(#clip640)" d="M184.91 1041.83 L189.794 1041.83 L189.794 1047.71 L184.91 1047.71 L184.91 1041.83 Z" fill="#000000" fill-rule="nonzero" fill-opacity="1" /><path clip-path="url(#clip640)" d="M209.979 1016.23 Q206.368 1016.23 204.539 1019.8 Q202.734 1023.34 202.734 1030.47 Q202.734 1037.58 204.539 1041.14 Q206.368 1044.68 209.979 1044.68 Q213.613 1044.68 215.419 1041.14 Q217.248 1037.58 217.248 1030.47 Q217.248 1023.34 215.419 1019.8 Q213.613 1016.23 209.979 1016.23 M209.979 1012.53 Q215.789 1012.53 218.845 1017.14 Q221.923 1021.72 221.923 1030.47 Q221.923 1039.2 218.845 1043.8 Q215.789 1048.39 209.979 1048.39 Q204.169 1048.39 201.09 1043.8 Q198.035 1039.2 198.035 1030.47 Q198.035 1021.72 201.09 1017.14 Q204.169 1012.53 209.979 1012.53 Z" fill="#000000" fill-rule="nonzero" fill-opacity="1" /><path clip-path="url(#clip640)" d="M234.169 1043.78 L250.488 1043.78 L250.488 1047.71 L228.544 1047.71 L228.544 1043.78 Q231.206 1041.02 235.789 1036.39 Q240.396 1031.74 241.576 1030.4 Q243.822 1027.88 244.701 1026.14 Q245.604 1024.38 245.604 1022.69 Q245.604 1019.94 243.659 1018.2 Q241.738 1016.46 238.636 1016.46 Q236.437 1016.46 233.984 1017.23 Q231.553 1017.99 228.775 1019.54 L228.775 1014.82 Q231.599 1013.69 234.053 1013.11 Q236.507 1012.53 238.544 1012.53 Q243.914 1012.53 247.109 1015.21 Q250.303 1017.9 250.303 1022.39 Q250.303 1024.52 249.493 1026.44 Q248.706 1028.34 246.599 1030.93 Q246.021 1031.6 242.919 1034.82 Q239.817 1038.02 234.169 1043.78 Z" fill="#000000" fill-rule="nonzero" fill-opacity="1" /><path clip-path="url(#clip640)" d="M260.349 1013.15 L278.706 1013.15 L278.706 1017.09 L264.632 1017.09 L264.632 1025.56 Q265.65 1025.21 266.669 1025.05 Q267.687 1024.87 268.706 1024.87 Q274.493 1024.87 277.872 1028.04 Q281.252 1031.21 281.252 1036.63 Q281.252 1042.2 277.78 1045.31 Q274.307 1048.39 267.988 1048.39 Q265.812 1048.39 263.544 1048.02 Q261.298 1047.64 258.891 1046.9 L258.891 1042.2 Q260.974 1043.34 263.196 1043.89 Q265.419 1044.45 267.895 1044.45 Q271.9 1044.45 274.238 1042.34 Q276.576 1040.24 276.576 1036.63 Q276.576 1033.02 274.238 1030.91 Q271.9 1028.8 267.895 1028.8 Q266.02 1028.8 264.145 1029.22 Q262.294 1029.64 260.349 1030.52 L260.349 1013.15 Z" fill="#000000" fill-rule="nonzero" fill-opacity="1" /><path clip-path="url(#clip640)" d="M163.753 771.118 Q160.141 771.118 158.313 774.683 Q156.507 778.225 156.507 785.355 Q156.507 792.461 158.313 796.026 Q160.141 799.567 163.753 799.567 Q167.387 799.567 169.192 796.026 Q171.021 792.461 171.021 785.355 Q171.021 778.225 169.192 774.683 Q167.387 771.118 163.753 771.118 M163.753 767.415 Q169.563 767.415 172.618 772.021 Q175.697 776.605 175.697 785.355 Q175.697 794.081 172.618 798.688 Q169.563 803.271 163.753 803.271 Q157.942 803.271 154.864 798.688 Q151.808 794.081 151.808 785.355 Q151.808 776.605 154.864 772.021 Q157.942 767.415 163.753 767.415 Z" fill="#000000" fill-rule="nonzero" fill-opacity="1" /><path clip-path="url(#clip640)" d="M183.914 796.72 L188.799 796.72 L188.799 802.6 L183.914 802.6 L183.914 796.72 Z" fill="#000000" fill-rule="nonzero" fill-opacity="1" /><path clip-path="url(#clip640)" d="M208.984 771.118 Q205.373 771.118 203.544 774.683 Q201.738 778.225 201.738 785.355 Q201.738 792.461 203.544 796.026 Q205.373 799.567 208.984 799.567 Q212.618 799.567 214.424 796.026 Q216.252 792.461 216.252 785.355 Q216.252 778.225 214.424 774.683 Q212.618 771.118 208.984 771.118 M208.984 767.415 Q214.794 767.415 217.849 772.021 Q220.928 776.605 220.928 785.355 Q220.928 794.081 217.849 798.688 Q214.794 803.271 208.984 803.271 Q203.174 803.271 200.095 798.688 Q197.039 794.081 197.039 785.355 Q197.039 776.605 200.095 772.021 Q203.174 767.415 208.984 767.415 Z" fill="#000000" fill-rule="nonzero" fill-opacity="1" /><path clip-path="url(#clip640)" d="M239.146 771.118 Q235.535 771.118 233.706 774.683 Q231.9 778.225 231.9 785.355 Q231.9 792.461 233.706 796.026 Q235.535 799.567 239.146 799.567 Q242.78 799.567 244.585 796.026 Q246.414 792.461 246.414 785.355 Q246.414 778.225 244.585 774.683 Q242.78 771.118 239.146 771.118 M239.146 767.415 Q244.956 767.415 248.011 772.021 Q251.09 776.605 251.09 785.355 Q251.09 794.081 248.011 798.688 Q244.956 803.271 239.146 803.271 Q233.335 803.271 230.257 798.688 Q227.201 794.081 227.201 785.355 Q227.201 776.605 230.257 772.021 Q233.335 767.415 239.146 767.415 Z" fill="#000000" fill-rule="nonzero" fill-opacity="1" /><path clip-path="url(#clip640)" d="M269.307 771.118 Q265.696 771.118 263.868 774.683 Q262.062 778.225 262.062 785.355 Q262.062 792.461 263.868 796.026 Q265.696 799.567 269.307 799.567 Q272.942 799.567 274.747 796.026 Q276.576 792.461 276.576 785.355 Q276.576 778.225 274.747 774.683 Q272.942 771.118 269.307 771.118 M269.307 767.415 Q275.118 767.415 278.173 772.021 Q281.252 776.605 281.252 785.355 Q281.252 794.081 278.173 798.688 Q275.118 803.271 269.307 803.271 Q263.497 803.271 260.419 798.688 Q257.363 794.081 257.363 785.355 Q257.363 776.605 260.419 772.021 Q263.497 767.415 269.307 767.415 Z" fill="#000000" fill-rule="nonzero" fill-opacity="1" /><path clip-path="url(#clip640)" d="M164.748 526.004 Q161.137 526.004 159.308 529.569 Q157.503 533.111 157.503 540.24 Q157.503 547.347 159.308 550.911 Q161.137 554.453 164.748 554.453 Q168.382 554.453 170.188 550.911 Q172.016 547.347 172.016 540.24 Q172.016 533.111 170.188 529.569 Q168.382 526.004 164.748 526.004 M164.748 522.3 Q170.558 522.3 173.614 526.907 Q176.692 531.49 176.692 540.24 Q176.692 548.967 173.614 553.573 Q170.558 558.157 164.748 558.157 Q158.938 558.157 155.859 553.573 Q152.803 548.967 152.803 540.24 Q152.803 531.49 155.859 526.907 Q158.938 522.3 164.748 522.3 Z" fill="#000000" fill-rule="nonzero" fill-opacity="1" /><path clip-path="url(#clip640)" d="M184.91 551.606 L189.794 551.606 L189.794 557.485 L184.91 557.485 L184.91 551.606 Z" fill="#000000" fill-rule="nonzero" fill-opacity="1" /><path clip-path="url(#clip640)" d="M209.979 526.004 Q206.368 526.004 204.539 529.569 Q202.734 533.111 202.734 540.24 Q202.734 547.347 204.539 550.911 Q206.368 554.453 209.979 554.453 Q213.613 554.453 215.419 550.911 Q217.248 547.347 217.248 540.24 Q217.248 533.111 215.419 529.569 Q213.613 526.004 209.979 526.004 M209.979 522.3 Q215.789 522.3 218.845 526.907 Q221.923 531.49 221.923 540.24 Q221.923 548.967 218.845 553.573 Q215.789 558.157 209.979 558.157 Q204.169 558.157 201.09 553.573 Q198.035 548.967 198.035 540.24 Q198.035 531.49 201.09 526.907 Q204.169 522.3 209.979 522.3 Z" fill="#000000" fill-rule="nonzero" fill-opacity="1" /><path clip-path="url(#clip640)" d="M234.169 553.55 L250.488 553.55 L250.488 557.485 L228.544 557.485 L228.544 553.55 Q231.206 550.796 235.789 546.166 Q240.396 541.513 241.576 540.171 Q243.822 537.648 244.701 535.912 Q245.604 534.152 245.604 532.462 Q245.604 529.708 243.659 527.972 Q241.738 526.236 238.636 526.236 Q236.437 526.236 233.984 527 Q231.553 527.763 228.775 529.314 L228.775 524.592 Q231.599 523.458 234.053 522.879 Q236.507 522.3 238.544 522.3 Q243.914 522.3 247.109 524.986 Q250.303 527.671 250.303 532.162 Q250.303 534.291 249.493 536.212 Q248.706 538.111 246.599 540.703 Q246.021 541.374 242.919 544.592 Q239.817 547.786 234.169 553.55 Z" fill="#000000" fill-rule="nonzero" fill-opacity="1" /><path clip-path="url(#clip640)" d="M260.349 522.925 L278.706 522.925 L278.706 526.861 L264.632 526.861 L264.632 535.333 Q265.65 534.986 266.669 534.824 Q267.687 534.638 268.706 534.638 Q274.493 534.638 277.872 537.81 Q281.252 540.981 281.252 546.398 Q281.252 551.976 277.78 555.078 Q274.307 558.157 267.988 558.157 Q265.812 558.157 263.544 557.786 Q261.298 557.416 258.891 556.675 L258.891 551.976 Q260.974 553.111 263.196 553.666 Q265.419 554.222 267.895 554.222 Q271.9 554.222 274.238 552.115 Q276.576 550.009 276.576 546.398 Q276.576 542.786 274.238 540.68 Q271.9 538.574 267.895 538.574 Q266.02 538.574 264.145 538.99 Q262.294 539.407 260.349 540.287 L260.349 522.925 Z" fill="#000000" fill-rule="nonzero" fill-opacity="1" /><path clip-path="url(#clip640)" d="M163.753 280.89 Q160.141 280.89 158.313 284.455 Q156.507 287.996 156.507 295.126 Q156.507 302.232 158.313 305.797 Q160.141 309.339 163.753 309.339 Q167.387 309.339 169.192 305.797 Q171.021 302.232 171.021 295.126 Q171.021 287.996 169.192 284.455 Q167.387 280.89 163.753 280.89 M163.753 277.186 Q169.563 277.186 172.618 281.793 Q175.697 286.376 175.697 295.126 Q175.697 303.853 172.618 308.459 Q169.563 313.042 163.753 313.042 Q157.942 313.042 154.864 308.459 Q151.808 303.853 151.808 295.126 Q151.808 286.376 154.864 281.793 Q157.942 277.186 163.753 277.186 Z" fill="#000000" fill-rule="nonzero" fill-opacity="1" /><path clip-path="url(#clip640)" d="M183.914 306.492 L188.799 306.492 L188.799 312.371 L183.914 312.371 L183.914 306.492 Z" fill="#000000" fill-rule="nonzero" fill-opacity="1" /><path clip-path="url(#clip640)" d="M208.984 280.89 Q205.373 280.89 203.544 284.455 Q201.738 287.996 201.738 295.126 Q201.738 302.232 203.544 305.797 Q205.373 309.339 208.984 309.339 Q212.618 309.339 214.424 305.797 Q216.252 302.232 216.252 295.126 Q216.252 287.996 214.424 284.455 Q212.618 280.89 208.984 280.89 M208.984 277.186 Q214.794 277.186 217.849 281.793 Q220.928 286.376 220.928 295.126 Q220.928 303.853 217.849 308.459 Q214.794 313.042 208.984 313.042 Q203.174 313.042 200.095 308.459 Q197.039 303.853 197.039 295.126 Q197.039 286.376 200.095 281.793 Q203.174 277.186 208.984 277.186 Z" fill="#000000" fill-rule="nonzero" fill-opacity="1" /><path clip-path="url(#clip640)" d="M229.192 277.811 L247.548 277.811 L247.548 281.746 L233.474 281.746 L233.474 290.219 Q234.493 289.871 235.511 289.709 Q236.53 289.524 237.548 289.524 Q243.335 289.524 246.715 292.695 Q250.095 295.867 250.095 301.283 Q250.095 306.862 246.622 309.964 Q243.15 313.042 236.831 313.042 Q234.655 313.042 232.386 312.672 Q230.141 312.302 227.734 311.561 L227.734 306.862 Q229.817 307.996 232.039 308.552 Q234.261 309.107 236.738 309.107 Q240.743 309.107 243.081 307.001 Q245.419 304.894 245.419 301.283 Q245.419 297.672 243.081 295.566 Q240.743 293.459 236.738 293.459 Q234.863 293.459 232.988 293.876 Q231.136 294.293 229.192 295.172 L229.192 277.811 Z" fill="#000000" fill-rule="nonzero" fill-opacity="1" /><path clip-path="url(#clip640)" d="M269.307 280.89 Q265.696 280.89 263.868 284.455 Q262.062 287.996 262.062 295.126 Q262.062 302.232 263.868 305.797 Q265.696 309.339 269.307 309.339 Q272.942 309.339 274.747 305.797 Q276.576 302.232 276.576 295.126 Q276.576 287.996 274.747 284.455 Q272.942 280.89 269.307 280.89 M269.307 277.186 Q275.118 277.186 278.173 281.793 Q281.252 286.376 281.252 295.126 Q281.252 303.853 278.173 308.459 Q275.118 313.042 269.307 313.042 Q263.497 313.042 260.419 308.459 Q257.363 303.853 257.363 295.126 Q257.363 286.376 260.419 281.793 Q263.497 277.186 269.307 277.186 Z" fill="#000000" fill-rule="nonzero" fill-opacity="1" /><path clip-path="url(#clip640)" d="M1039.45 12.096 L1086.97 12.096 L1086.97 18.3344 L1048.73 65.6895 L1087.9 65.6895 L1087.9 72.576 L1038.52 72.576 L1038.52 66.3376 L1076.76 18.9825 L1039.45 18.9825 L1039.45 12.096 Z" fill="#000000" fill-rule="nonzero" fill-opacity="1" /><path clip-path="url(#clip640)" d="M1138.25 48.0275 L1138.25 51.6733 L1103.98 51.6733 Q1104.47 59.3701 1108.6 63.421 Q1112.77 67.4314 1120.18 67.4314 Q1124.48 67.4314 1128.49 66.3781 Q1132.54 65.3249 1136.51 63.2184 L1136.51 70.267 Q1132.5 71.9684 1128.29 72.8596 Q1124.07 73.7508 1119.74 73.7508 Q1108.88 73.7508 1102.52 67.4314 Q1096.2 61.1119 1096.2 50.3365 Q1096.2 39.1965 1102.2 32.6746 Q1108.23 26.1121 1118.44 26.1121 Q1127.6 26.1121 1132.9 32.0264 Q1138.25 37.9003 1138.25 48.0275 M1130.8 45.84 Q1130.72 39.7232 1127.35 36.0774 Q1124.03 32.4315 1118.52 32.4315 Q1112.28 32.4315 1108.52 35.9558 Q1104.79 39.4801 1104.22 45.8805 L1130.8 45.84 Z" fill="#000000" fill-rule="nonzero" fill-opacity="1" /><path clip-path="url(#clip640)" d="M1176.78 34.1734 Q1175.52 33.4443 1174.02 33.1202 Q1172.56 32.7556 1170.78 32.7556 Q1164.46 32.7556 1161.06 36.8875 Q1157.7 40.9789 1157.7 48.6757 L1157.7 72.576 L1150.2 72.576 L1150.2 27.2059 L1157.7 27.2059 L1157.7 34.2544 Q1160.05 30.1225 1163.81 28.1376 Q1167.58 26.1121 1172.97 26.1121 Q1173.74 26.1121 1174.67 26.2337 Q1175.6 26.3147 1176.73 26.5172 L1176.78 34.1734 Z" fill="#000000" fill-rule="nonzero" fill-opacity="1" /><path clip-path="url(#clip640)" d="M1200.35 32.4315 Q1194.36 32.4315 1190.87 37.1306 Q1187.39 41.7891 1187.39 49.9314 Q1187.39 58.0738 1190.83 62.7728 Q1194.32 67.4314 1200.35 67.4314 Q1206.31 67.4314 1209.79 62.7323 Q1213.27 58.0333 1213.27 49.9314 Q1213.27 41.8701 1209.79 37.1711 Q1206.31 32.4315 1200.35 32.4315 M1200.35 26.1121 Q1210.07 26.1121 1215.62 32.4315 Q1221.17 38.7509 1221.17 49.9314 Q1221.17 61.0714 1215.62 67.4314 Q1210.07 73.7508 1200.35 73.7508 Q1190.59 73.7508 1185.04 67.4314 Q1179.53 61.0714 1179.53 49.9314 Q1179.53 38.7509 1185.04 32.4315 Q1190.59 26.1121 1200.35 26.1121 Z" fill="#000000" fill-rule="nonzero" fill-opacity="1" /><path clip-path="url(#clip640)" d="M1240.9 14.324 L1240.9 27.2059 L1256.25 27.2059 L1256.25 32.9987 L1240.9 32.9987 L1240.9 57.6282 Q1240.9 63.1779 1242.4 64.7578 Q1243.94 66.3376 1248.6 66.3376 L1256.25 66.3376 L1256.25 72.576 L1248.6 72.576 Q1239.97 72.576 1236.69 69.3758 Q1233.41 66.1351 1233.41 57.6282 L1233.41 32.9987 L1227.94 32.9987 L1227.94 27.2059 L1233.41 27.2059 L1233.41 14.324 L1240.9 14.324 Z" fill="#000000" fill-rule="nonzero" fill-opacity="1" /><path clip-path="url(#clip640)" d="M1303.77 45.1919 L1303.77 72.576 L1296.32 72.576 L1296.32 45.4349 Q1296.32 38.994 1293.81 35.7938 Q1291.29 32.5936 1286.27 32.5936 Q1280.24 32.5936 1276.75 36.4419 Q1273.27 40.2903 1273.27 46.9338 L1273.27 72.576 L1265.77 72.576 L1265.77 9.54393 L1273.27 9.54393 L1273.27 34.2544 Q1275.94 30.163 1279.55 28.1376 Q1283.19 26.1121 1287.93 26.1121 Q1295.75 26.1121 1299.76 30.9732 Q1303.77 35.7938 1303.77 45.1919 Z" fill="#000000" fill-rule="nonzero" fill-opacity="1" /><path clip-path="url(#clip640)" d="M1345.33 12.096 L1353.52 12.096 L1353.52 65.6895 L1382.97 65.6895 L1382.97 72.576 L1345.33 72.576 L1345.33 12.096 Z" fill="#000000" fill-rule="nonzero" fill-opacity="1" /><path clip-path="url(#clip640)" d="M1411.85 49.7694 Q1402.82 49.7694 1399.33 51.8354 Q1395.85 53.9013 1395.85 58.8839 Q1395.85 62.8538 1398.44 65.2034 Q1401.07 67.5124 1405.57 67.5124 Q1411.77 67.5124 1415.5 63.1374 Q1419.26 58.7219 1419.26 51.4303 L1419.26 49.7694 L1411.85 49.7694 M1426.72 46.6907 L1426.72 72.576 L1419.26 72.576 L1419.26 65.6895 Q1416.71 69.8214 1412.9 71.8063 Q1409.09 73.7508 1403.59 73.7508 Q1396.62 73.7508 1392.49 69.8619 Q1388.39 65.9325 1388.39 59.3701 Q1388.39 51.7138 1393.5 47.825 Q1398.64 43.9361 1408.81 43.9361 L1419.26 43.9361 L1419.26 43.2069 Q1419.26 38.0623 1415.86 35.2672 Q1412.5 32.4315 1406.38 32.4315 Q1402.49 32.4315 1398.81 33.3632 Q1395.12 34.295 1391.72 36.1584 L1391.72 29.2718 Q1395.81 27.692 1399.66 26.9223 Q1403.5 26.1121 1407.15 26.1121 Q1416.99 26.1121 1421.85 31.2163 Q1426.72 36.3204 1426.72 46.6907 Z" fill="#000000" fill-rule="nonzero" fill-opacity="1" /><path clip-path="url(#clip640)" d="M1460.95 76.7889 Q1457.79 84.8907 1454.79 87.3618 Q1451.79 89.8329 1446.77 89.8329 L1440.81 89.8329 L1440.81 83.5945 L1445.19 83.5945 Q1448.27 83.5945 1449.97 82.1361 Q1451.67 80.6778 1453.74 75.2496 L1455.07 71.8468 L1436.72 27.2059 L1444.62 27.2059 L1458.8 62.6918 L1472.98 27.2059 L1480.88 27.2059 L1460.95 76.7889 Z" fill="#000000" fill-rule="nonzero" fill-opacity="1" /><path clip-path="url(#clip640)" d="M1529.97 48.0275 L1529.97 51.6733 L1495.7 51.6733 Q1496.19 59.3701 1500.32 63.421 Q1504.49 67.4314 1511.91 67.4314 Q1516.2 67.4314 1520.21 66.3781 Q1524.26 65.3249 1528.23 63.2184 L1528.23 70.267 Q1524.22 71.9684 1520.01 72.8596 Q1515.8 73.7508 1511.46 73.7508 Q1500.6 73.7508 1494.24 67.4314 Q1487.93 61.1119 1487.93 50.3365 Q1487.93 39.1965 1493.92 32.6746 Q1499.96 26.1121 1510.16 26.1121 Q1519.32 26.1121 1524.63 32.0264 Q1529.97 37.9003 1529.97 48.0275 M1522.52 45.84 Q1522.44 39.7232 1519.08 36.0774 Q1515.75 32.4315 1510.25 32.4315 Q1504.01 32.4315 1500.24 35.9558 Q1496.51 39.4801 1495.95 45.8805 L1522.52 45.84 Z" fill="#000000" fill-rule="nonzero" fill-opacity="1" /><path clip-path="url(#clip640)" d="M1568.5 34.1734 Q1567.24 33.4443 1565.74 33.1202 Q1564.28 32.7556 1562.5 32.7556 Q1556.18 32.7556 1552.78 36.8875 Q1549.42 40.9789 1549.42 48.6757 L1549.42 72.576 L1541.92 72.576 L1541.92 27.2059 L1549.42 27.2059 L1549.42 34.2544 Q1551.77 30.1225 1555.53 28.1376 Q1559.3 26.1121 1564.69 26.1121 Q1565.46 26.1121 1566.39 26.2337 Q1567.32 26.3147 1568.46 26.5172 L1568.5 34.1734 Z" fill="#000000" fill-rule="nonzero" fill-opacity="1" /><polyline clip-path="url(#clip641)" style="stroke:#0000ff; stroke-linecap:round; stroke-linejoin:round; stroke-width:4; stroke-opacity:1; fill:none" points="319.176,785.468 321.101,785.468 323.025,785.468 324.949,785.467 326.874,785.467 328.798,785.466 330.723,785.465 332.647,785.464 334.571,785.463 336.496,785.462 338.42,785.461 340.345,785.459 342.269,785.458 344.194,785.456 346.118,785.454 348.042,785.452 349.967,785.45 351.891,785.448 353.816,785.446 355.74,785.444 357.664,785.442 359.589,785.439 361.513,785.437 363.438,785.435 365.362,785.432 367.286,785.429 369.211,785.427 371.135,785.424 373.06,785.422 374.984,785.419 376.908,785.416 378.833,785.413 380.757,785.411 382.682,785.408 384.606,785.405 386.53,785.403 388.455,785.4 390.379,785.397 392.304,785.395 394.228,785.392 396.152,785.389 398.077,785.387 400.001,785.384 401.926,785.382 403.85,785.379 405.774,785.377 407.699,785.375 409.623,785.372 411.548,785.37 413.472,785.368 415.396,785.366 417.321,785.364 419.245,785.362 421.17,785.36 423.094,785.358 425.018,785.357 426.943,785.355 428.867,785.353 430.792,785.351 432.716,785.35 434.64,785.348 436.565,785.347 438.489,785.345 440.414,785.344 442.338,785.342 444.262,785.341 446.187,785.34 448.111,785.338 450.036,785.337 451.96,785.336 453.884,785.334 455.809,785.333 457.733,785.332 459.658,785.33 461.582,785.329 463.506,785.327 465.431,785.326 467.355,785.324 469.28,785.323 471.204,785.321 473.128,785.32 475.053,785.318 476.977,785.316 478.902,785.314 480.826,785.313 482.75,785.311 484.675,785.309 486.599,785.307 488.524,785.305 490.448,785.304 492.372,785.302 494.297,785.3 496.221,785.299 498.146,785.298 500.07,785.297 501.994,785.296 503.919,785.295 505.843,785.295 507.768,785.295 509.692,785.296 511.616,785.297 513.541,785.298 515.465,785.301 517.39,785.304 519.314,785.307 521.238,785.312 523.163,785.317 525.087,785.323 527.012,785.33 528.936,785.338 530.86,785.347 532.785,785.357 534.709,785.368 536.634,785.381 538.558,785.394 540.482,785.409 542.407,785.424 544.331,785.441 546.256,785.458 548.18,785.477 550.104,785.496 552.029,785.516 553.953,785.537 555.878,785.557 557.802,785.578 559.727,785.599 561.651,785.62 563.575,785.64 565.5,785.66 567.424,785.678 569.349,785.695 571.273,785.709 573.197,785.722 575.122,785.732 577.046,785.739 578.971,785.742 580.895,785.741 582.819,785.736 584.744,785.726 586.668,785.711 588.593,785.689 590.517,785.662 592.441,785.627 594.366,785.586 596.29,785.536 598.215,785.479 600.139,785.414 602.063,785.339 603.988,785.256 605.912,785.164 607.837,785.063 609.761,784.953 611.685,784.834 613.61,784.705 615.534,784.568 617.459,784.423 619.383,784.27 621.307,784.109 623.232,783.942 625.156,783.769 627.081,783.591 629.005,783.41 630.929,783.225 632.854,783.039 634.778,782.853 636.703,782.669 638.627,782.488 640.551,782.312 642.476,782.143 644.4,781.983 646.325,781.834 648.249,781.699 650.173,781.579 652.098,781.476 654.022,781.394 655.947,781.334 657.871,781.299 659.795,781.291 661.72,781.312 663.644,781.366 665.569,781.453 667.493,781.577 669.417,781.739 671.342,781.941 673.266,782.185 675.191,782.472 677.115,782.804 679.039,783.182 680.964,783.606 682.888,784.078 684.813,784.597 686.737,785.164 688.661,785.778 690.586,786.438 692.51,787.144 694.435,787.894 696.359,788.686 698.283,789.519 700.208,790.388 702.132,791.293 704.057,792.228 705.981,793.191 707.905,794.177 709.83,795.182 711.754,796.2 713.679,797.227 715.603,798.257 717.527,799.283 719.452,800.299 721.376,801.3 723.301,802.278 725.225,803.225 727.149,804.136 729.074,805.002 730.998,805.815 732.923,806.57 734.847,807.256 736.771,807.869 738.696,808.398 740.62,808.839 742.545,809.182 744.469,809.42 746.393,809.548 748.318,809.559 750.242,809.446 752.167,809.203 754.091,808.825 756.015,808.308 757.94,807.647 759.864,806.837 761.789,805.877 763.713,804.762 765.638,803.492 767.562,802.065 769.486,800.481 771.411,798.739 773.335,796.842 775.26,794.79 777.184,792.587 779.108,790.236 781.033,787.741 782.957,785.107 784.882,782.34 786.806,779.447 788.73,776.436 790.655,773.314 792.579,770.091 794.504,766.777 796.428,763.382 798.352,759.917 800.277,756.394 802.201,752.826 804.126,749.225 806.05,745.605 807.974,741.98 809.899,738.364 811.823,734.772 813.748,731.219 815.672,727.72 817.596,724.29 819.521,720.945 821.445,717.7 823.37,714.571 825.294,711.574 827.218,708.723 829.143,706.033 831.067,703.52 832.992,701.197 834.916,699.08 836.84,697.18 838.765,695.512 840.689,694.088 842.614,692.92 844.538,692.018 846.462,691.393 848.387,691.055 850.311,691.012 852.236,691.272 854.16,691.843 856.084,692.73 858.009,693.939 859.933,695.473 861.858,697.335 863.782,699.528 865.706,702.052 867.631,704.907 869.555,708.093 871.48,711.606 873.404,715.444 875.328,719.602 877.253,724.074 879.177,728.854 881.102,733.935 883.026,739.308 884.95,744.964 886.875,750.892 888.799,757.08 890.724,763.517 892.648,770.189 894.572,777.083 896.497,784.183 898.421,791.474 900.346,798.941 902.27,806.566 904.194,814.332 906.119,822.222 908.043,830.217 909.968,838.298 911.892,846.446 913.816,854.642 915.741,862.867 917.665,871.099 919.59,879.321 921.514,887.51 923.438,895.648 925.363,903.715 927.287,911.689 929.212,919.552 931.136,927.284 933.06,934.865 934.985,942.277 936.909,949.5 938.834,956.517 940.758,963.309 942.682,969.858 944.607,976.148 946.531,982.163 948.456,987.887 950.38,993.304 952.304,998.4 954.229,1003.16 956.153,1007.58 958.078,1011.63 960.002,1015.31 961.926,1018.61 963.851,1021.52 965.775,1024.02 967.7,1026.12 969.624,1027.8 971.549,1029.06 973.473,1029.88 975.397,1030.28 977.322,1030.23 979.246,1029.74 981.171,1028.81 983.095,1027.44 985.019,1025.62 986.944,1023.36 988.868,1020.66 990.793,1017.51 992.717,1013.93 994.641,1009.91 996.566,1005.47 998.49,1000.6 1000.41,995.307 1002.34,989.609 1004.26,983.507 1006.19,977.01 1008.11,970.126 1010.04,962.867 1011.96,955.241 1013.89,947.259 1015.81,938.933 1017.73,930.274 1019.66,921.296 1021.58,912.01 1023.51,902.43 1025.43,892.57 1027.36,882.443 1029.28,872.064 1031.2,861.449 1033.13,850.611 1035.05,839.566 1036.98,828.329 1038.9,816.917 1040.83,805.345 1042.75,793.629 1044.68,781.785 1046.6,769.829 1048.52,757.778 1050.45,745.648 1052.37,733.455 1054.3,721.215 1056.22,708.945 1058.15,696.66 1060.07,684.377 1062,672.111 1063.92,659.878 1065.84,647.695 1067.77,635.575 1069.69,623.534 1071.62,611.588 1073.54,599.75 1075.47,588.035 1077.39,576.458 1079.32,565.031 1081.24,553.769 1083.16,542.685 1085.09,531.791 1087.01,521.1 1088.94,510.624 1090.86,500.374 1092.79,490.363 1094.71,480.6 1096.63,471.096 1098.56,461.862 1100.48,452.907 1102.41,444.24 1104.33,435.871 1106.26,427.807 1108.18,420.056 1110.11,412.626 1112.03,405.524 1113.95,398.756 1115.88,392.33 1117.8,386.249 1119.73,380.52 1121.65,375.148 1123.58,370.136 1125.5,365.489 1127.43,361.21 1129.35,357.303 1131.27,353.77 1133.2,350.613 1135.12,347.834 1137.05,345.434 1138.97,343.414 1140.9,341.776 1142.82,340.519 1144.74,339.642 1146.67,339.147 1148.59,339.03 1150.52,339.292 1152.44,339.93 1154.37,340.943 1156.29,342.328 1158.22,344.082 1160.14,346.203 1162.06,348.687 1163.99,351.531 1165.91,354.73 1167.84,358.281 1169.76,362.179 1171.69,366.419 1173.61,370.997 1175.54,375.907 1177.46,381.143 1179.38,386.701 1181.31,392.574 1183.23,398.756 1185.16,405.241 1187.08,412.023 1189.01,419.094 1190.93,426.449 1192.85,434.079 1194.78,441.979 1196.7,450.14 1198.63,458.556 1200.55,467.219 1202.48,476.121 1204.4,485.255 1206.33,494.613 1208.25,504.187 1210.17,513.97 1212.1,523.952 1214.02,534.128 1215.95,544.487 1217.87,555.023 1219.8,565.726 1221.72,576.589 1223.65,587.605 1225.57,598.763 1227.49,610.057 1229.42,621.478 1231.34,633.018 1233.27,644.669 1235.19,656.422 1237.12,668.27 1239.04,680.205 1240.96,692.218 1242.89,704.302 1244.81,716.449 1246.74,728.65 1248.66,740.899 1250.59,753.187 1252.51,765.507 1254.44,777.851 1256.36,790.212 1258.28,802.582 1260.21,814.954 1262.13,827.322 1264.06,839.677 1265.98,852.012 1267.91,864.322 1269.83,876.599 1271.76,888.836 1273.68,901.027 1275.6,913.166 1277.53,925.246 1279.45,937.261 1281.38,949.204 1283.3,961.071 1285.23,972.854 1287.15,984.549 1289.07,996.15 1291,1007.65 1292.92,1019.05 1294.85,1030.33 1296.77,1041.5 1298.7,1052.56 1300.62,1063.48 1302.55,1074.28 1304.47,1079.63 1306.39,1090.22 1308.32,1100.67 1310.24,1110.98 1312.17,1121.14 1314.09,1131.15 1316.02,1141 1317.94,1150.69 1319.87,1160.22 1321.79,1169.58 1323.71,1178.78 1325.64,1187.79 1327.56,1196.64 1329.49,1205.3 1331.41,1213.78 1333.34,1222.08 1335.26,1230.19 1337.18,1238.12 1339.11,1245.85 1341.03,1253.39 1342.96,1260.73 1344.88,1267.88 1346.81,1274.83 1348.73,1281.58 1350.66,1288.12 1352.58,1294.47 1354.5,1300.61 1356.43,1306.55 1358.35,1312.28 1360.28,1317.8 1362.2,1323.12 1364.13,1328.23 1366.05,1333.13 1367.98,1337.82 1369.9,1342.3 1371.82,1346.57 1373.75,1350.64 1375.67,1354.49 1377.6,1358.13 1379.52,1361.56 1381.45,1364.79 1383.37,1367.8 1385.29,1370.61 1387.22,1373.21 1389.14,1375.6 1391.07,1377.78 1392.99,1379.76 1394.92,1381.53 1396.84,1383.1 1398.77,1384.46 1400.69,1385.63 1402.61,1386.59 1404.54,1387.35 1406.46,1387.91 1408.39,1388.28 1410.31,1388.45 1412.24,1388.42 1414.16,1388.2 1416.09,1387.79 1418.01,1387.2 1419.93,1386.41 1421.86,1385.43 1423.78,1384.28 1425.71,1382.94 1427.63,1381.41 1429.56,1379.71 1431.48,1377.84 1433.4,1375.78 1435.33,1373.56 1437.25,1371.16 1439.18,1368.59 1441.1,1365.86 1443.03,1362.97 1444.95,1359.91 1446.88,1356.69 1448.8,1353.31 1450.72,1349.78 1452.65,1346.09 1454.57,1342.26 1456.5,1338.28 1458.42,1334.15 1460.35,1329.87 1462.27,1325.46 1464.2,1320.9 1466.12,1316.21 1468.04,1311.39 1469.97,1306.44 1471.89,1301.35 1473.82,1296.15 1475.74,1290.81 1477.67,1285.36 1479.59,1279.79 1481.51,1274.1 1483.44,1268.3 1485.36,1262.38 1487.29,1256.36 1489.21,1250.24 1491.14,1244.01 1493.06,1237.68 1494.99,1231.25 1496.91,1224.72 1498.83,1218.11 1500.76,1211.4 1502.68,1204.6 1504.61,1197.72 1506.53,1190.76 1508.46,1183.71 1510.38,1176.59 1512.31,1169.4 1514.23,1162.13 1516.15,1154.79 1518.08,1147.38 1520,1139.91 1521.93,1132.37 1523.85,1124.77 1525.78,1117.12 1527.7,1109.41 1529.63,1101.65 1531.55,1093.83 1533.47,1085.97 1535.4,1078.06 1537.32,1070.11 1539.25,1062.12 1541.17,1054.08 1543.1,1046.01 1545.02,1037.91 1546.94,1029.77 1548.87,1021.61 1550.79,1013.41 1552.72,1005.19 1554.64,996.95 1556.57,988.684 1558.49,980.4 1560.42,972.098 1562.34,963.781 1564.26,955.451 1566.19,947.109 1568.11,938.759 1570.04,930.401 1571.96,922.039 1573.89,913.673 1575.81,905.305 1577.74,896.939 1579.66,888.574 1581.58,880.214 1583.51,871.86 1585.43,863.514 1587.36,855.177 1589.28,846.852 1591.21,838.54 1593.13,830.242 1595.05,821.961 1596.98,813.698 1598.9,805.455 1600.83,797.233 1602.75,789.033 1604.68,780.859 1606.6,772.709 1608.53,764.588 1610.45,756.495 1612.37,748.432 1614.3,740.401 1616.22,732.403 1618.15,724.439 1620.07,716.511 1622,708.62 1623.92,700.768 1625.85,692.955 1627.77,685.182 1629.69,677.452 1631.62,669.765 1633.54,662.123 1635.47,654.525 1637.39,646.975 1639.32,639.472 1641.24,632.018 1643.16,624.614 1645.09,617.261 1647.01,609.959 1648.94,602.71 1650.86,595.515 1652.79,588.375 1654.71,581.29 1656.64,574.261 1658.56,567.29 1660.48,560.377 1662.41,553.523 1664.33,546.728 1666.26,539.994 1668.18,533.321 1670.11,526.71 1672.03,520.162 1673.96,513.676 1675.88,507.255 1677.8,500.898 1679.73,494.607 1681.65,488.381 1683.58,482.222 1685.5,476.129 1687.43,470.104 1689.35,464.146 1691.27,458.257 1693.2,452.437 1695.12,446.686 1697.05,441.005 1698.97,435.395 1700.9,429.854 1702.82,424.385 1704.75,418.986 1706.67,413.66 1708.59,408.405 1710.52,403.222 1712.44,398.112 1714.37,393.075 1716.29,388.111 1718.22,383.22 1720.14,378.402 1722.07,373.658 1723.99,368.988 1725.91,364.392 1727.84,359.87 1729.76,355.422 1731.69,351.049 1733.61,346.75 1735.54,342.526 1737.46,338.376 1739.38,334.301 1741.31,330.301 1743.23,326.376 1745.16,322.525 1747.08,318.749 1749.01,315.049 1750.93,311.422 1752.86,307.871 1754.78,304.394 1756.7,300.992 1758.63,297.664 1760.55,294.411 1762.48,291.232 1764.4,288.128 1766.33,285.097 1768.25,282.141 1770.18,279.258 1772.1,276.449 1774.02,273.714 1775.95,271.052 1777.87,268.463 1779.8,265.947 1781.72,263.503 1783.65,261.132 1785.57,258.834 1787.49,256.607 1789.42,254.452 1791.34,252.369 1793.27,250.357 1795.19,248.416 1797.12,246.546 1799.04,244.746 1800.97,243.016 1802.89,241.356 1804.81,239.765 1806.74,238.243 1808.66,236.791 1810.59,235.406 1812.51,234.09 1814.44,232.842 1816.36,231.661 1818.29,230.547 1820.21,229.499 1822.13,228.518 1824.06,227.603 1825.98,226.753 1827.91,225.968 1829.83,225.248 1831.76,224.592 1833.68,224.001 1835.6,223.472 1837.53,223.006 1839.45,222.603 1841.38,222.262 1843.3,221.983 1845.23,221.765 1847.15,221.608 1849.08,221.511 1851,221.473 1852.92,221.496 1854.85,221.577 1856.77,221.716 1858.7,221.914 1860.62,222.169 1862.55,222.48 1864.47,222.849 1866.4,223.273 1868.32,223.753 1870.24,224.288 1872.17,224.877 1874.09,225.521 1876.02,226.218 1877.94,226.967 1879.87,227.77 1881.79,228.624 1883.71,229.53 1885.64,230.486 1887.56,231.493 1889.49,232.55 1891.41,233.656 1893.34,234.811 1895.26,236.015 1897.19,237.266 1899.11,238.564 1901.03,239.909 1902.96,241.301 1904.88,242.738 1906.81,244.219 1908.73,245.746 1910.66,247.317 1912.58,248.931 1914.51,250.588 1916.43,252.287 1918.35,254.028 1920.28,255.811 1922.2,257.634 1924.13,259.498 1926.05,261.401 1927.98,263.343 1929.9,265.324 1931.83,267.343 1933.75,269.4 1935.67,271.494 1937.6,273.624 1939.52,275.79 1941.45,277.991 1943.37,280.227 1945.3,282.497 1947.22,284.801 1949.14,287.138 1951.07,289.508 1952.99,291.91 1954.92,294.344 1956.84,296.808 1958.77,299.303 1960.69,301.828 1962.62,304.382 1964.54,306.965 1966.46,309.577 1968.39,312.216 1970.31,314.883 1972.24,317.576 1974.16,320.296 1976.09,323.041 1978.01,325.811 1979.94,328.606 1981.86,331.425 1983.78,334.268 1985.71,337.133 1987.63,340.021 1989.56,342.932 1991.48,345.863 1993.41,348.816 1995.33,351.789 1997.25,354.781 1999.18,357.794 2001.1,360.825 2003.03,363.874 2004.95,366.942 2006.88,370.027 2008.8,373.128 2010.73,376.246 2012.65,379.38 2014.57,382.529 2016.5,385.693 2018.42,388.871 2020.35,392.064 2022.27,395.269 2024.2,398.488 2026.12,401.718 2028.05,404.961 2029.97,408.215 2031.89,411.48 2033.82,414.755 2035.74,418.04 2037.67,421.335 2039.59,424.638 2041.52,427.95 2043.44,431.27 2045.36,434.598 2047.29,437.932 2049.21,441.273 2051.14,444.62 2053.06,447.973 2054.99,451.331 2056.91,454.694 2058.84,458.06 2060.76,461.431 2062.68,464.805 2064.61,468.181 2066.53,471.56 2068.46,474.941 2070.38,478.323 2072.31,481.707 2074.23,485.09 2076.16,488.474 2078.08,491.857 2080,495.24 2081.93,498.621 2083.85,502 2085.78,505.377 2087.7,508.752 2089.63,512.123 2091.55,515.49 2093.47,518.854 2095.4,522.213 2097.32,525.567 2099.25,528.915 2101.17,532.258 2103.1,535.594 2105.02,538.923 2106.95,542.245 2108.87,545.559 2110.79,548.865 2112.72,552.162 2114.64,555.45 2116.57,558.728 2118.49,561.997 2120.42,565.254 2122.34,568.501 2124.27,571.736 2126.19,574.958 2128.11,578.169 2130.04,581.366 2131.96,584.55 2133.89,587.719 2135.81,590.874 2137.74,594.014 2139.66,597.138 2141.58,600.247 2143.51,603.338 2145.43,606.413 2147.36,609.469 2149.28,612.508 2151.21,615.528 2153.13,618.528 2155.06,621.508 2156.98,624.468 2158.9,627.407 2160.83,630.324 2162.75,633.219 2164.68,636.091 2166.6,638.94 2168.53,641.764 2170.45,644.564 2172.38,647.339 2174.3,650.088 2176.22,652.81 2178.15,655.505 2180.07,658.172 2182,660.81 2183.92,663.42 2185.85,665.999 2187.77,668.548 2189.69,671.066 2191.62,673.552 2193.54,676.005 2195.47,678.425 2197.39,680.811 2199.32,683.162 2201.24,685.478 2203.17,687.757 2205.09,690 2207.01,692.205 2208.94,694.371 2210.86,696.499 2212.79,698.587 2214.71,700.634 2216.64,702.64 2218.56,704.604 2220.49,706.525 2222.41,708.403 2224.33,710.236 2226.26,712.025 2228.18,713.768 2230.11,715.465 2232.03,717.115 2233.96,718.717 2235.88,720.271 2237.8,721.776 2239.73,723.232 2241.65,724.637 2243.58,725.991 2245.5,727.294 2247.43,728.544 2249.35,729.743 2251.28,730.887 2253.2,731.979 2255.12,733.015 2257.05,733.998 2258.97,734.925 2260.9,735.796 2262.82,736.611 2264.75,737.37 2266.67,738.072 2268.6,738.716 2270.52,739.303 2272.44,739.832 2274.37,740.303 2276.29,740.716 2278.22,741.07 2280.14,741.366 2282.07,741.602 2283.99,741.78 2285.91,741.898 2287.84,741.957 "/>
</svg>
